<?xml version="1.0" encoding="utf-8"?>
<!-- Generator: Adobe Illustrator 22.0.0, SVG Export Plug-In . SVG Version: 6.00 Build 0)  -->
<svg version="1.1" id="Layer_1" xmlns="http://www.w3.org/2000/svg" xmlns:xlink="http://www.w3.org/1999/xlink" x="0px" y="0px"
	 viewBox="0 0 841.9 595.3" style="enable-background:new 0 0 841.9 595.3;" xml:space="preserve">
<style type="text/css">
	.st0{fill:#27012B;}
	.st1{fill:#00FFCD;}
	.st2{fill:#FFFFFF;}
</style>
<g id="XMLID_10398_">
</g>
<rect x="3336" y="779.9" class="st0" width="2" height="8.7"/>
<rect x="3336" y="910.4" class="st0" width="2" height="8.7"/>
<g>
	<g>
		<path class="st1" d="M101.6,277.4c0-8,6.5-14.5,14.5-14.5h4.9h69.6v-10.2c0-10.7-8.7-19.3-19.3-19.3H92.1
			c-10.7,0-19.3,8.7-19.3,19.3v79.1c0,10.7,8.7,19.3,19.3,19.3h9.6v-68.9V277.4z"/>
		<path class="st1" d="M200.1,263h-9.6v27.3h-45.3v6.8h45.3v20.8h-45.3v6.8h45.3v7.3v4.9c0,8-6.5,14.5-14.5,14.5h-4.9h-69.6v10.2
			c0,10.7,8.7,19.3,19.3,19.3h79.1c10.7,0,19.3-8.7,19.3-19.3v-79.1C219.4,271.6,210.8,263,200.1,263z"/>
		<path class="st2" d="M282.8,255.8h-44.7v108.9h23.7l0-88.5h19.8c6.7,0,11.8,1.5,15.4,4.6c3.5,3.1,5.3,7.6,5.3,13.6
			c0,6-1.8,10.7-5.3,13.9c-3.6,3.1-8.8,4.8-15.4,4.8h-14.9v20.5h16.1c13.4,0,23.7-3.5,31.1-10.4c7.3-7.1,11.1-16.9,11.1-29.5
			c0-12.1-3.7-21.4-11.1-27.9C306.6,259.1,296.3,255.8,282.8,255.8z"/>
		<path class="st2" d="M495.6,279.5c5.4,2.6,5,2.6,6.6,4l16.5-11.6c-3-5-11.3-11.5-18.3-13.5c-6.8-2.2-10.9-2.4-18-2.4
			c-3.6,0-6.9,0.3-10.2,0.8v21.4c2.2-1,4.9-1.5,8.2-1.5C484.7,276.5,490.1,276.8,495.6,279.5z"/>
		<path class="st2" d="M505.4,306.5c-4.5-2.1-10.3-4.2-17.4-6.3c-6.9-2.2-12.2-4.2-15.6-6.2c-3.3-1.9-5-4.8-5-8.5v-0.9v-26.9
			c-2.1,0.5-4,1.3-5.9,2.1c-5.9,2.6-10.6,6.3-13.9,11.1c-3.3,4.8-5,10.4-5,16.7c0,6.8,1.7,12.4,4.9,16.5c3.2,4.2,7.1,7.2,11.5,9.3
			c4.5,2.1,10.2,4.1,17.2,6c4.9,1.4,8.8,2.7,11.6,3.9c2.7,1,5,2.4,6.8,4.2c1.8,1.8,2.7,4,2.7,6.8v0.6v28.3c1.8-0.5,3.5-1,5.1-1.7
			c6-2.6,10.8-6.3,14.3-11.2c3.5-4.9,5.3-10.7,5.3-17.5c0-6.9-1.7-12.6-4.9-16.9C513.9,311.8,510,308.7,505.4,306.5z"/>
		<path class="st2" d="M463.6,340.5c-4-1.8-5-2.6-8.6-5.4l-19.6,9.1c5.8,7.5,15.7,14.7,21.9,16.6c8.2,2.4,16.2,4.5,24.4,4.5
			c3.9,0,7.5-0.3,10.8-0.9v-21.9c-2.6,1.5-6,2.3-10.4,2.3C476.5,344.8,470.3,343.4,463.6,340.5z"/>
		<rect x="553.5" y="281.7" class="st2" width="23.8" height="83"/>
		<polygon class="st2" points="633.3,344.3 633.3,281.7 609.5,281.7 609.5,364.7 686.5,364.7 686.5,344.3 		"/>
		<polygon class="st2" points="638.2,320.1 684,320.1 683.9,299.8 638.2,299.8 		"/>
		<rect x="521.5" y="255.8" class="st2" width="165" height="20.3"/>
		<path class="st2" d="M764.1,334.2c-0.4,0.1-10.2,4-22.1,4l14.3,26.5h26.9L764.1,334.2z"/>
		<path class="st2" d="M775.4,315.1c3.3-5.9,5-13.1,5-21.5c0-12.1-3.7-21.4-11.3-27.9c-7.5-6.6-18.1-9.9-31.9-9.9h-45.7v88.5h0v20.3
			h23.2v-88.5h22.5c6.7,0,11.7,1.5,15.3,4.6c3.6,3.1,5.4,7.6,5.4,13.6c0,6-1.8,10.7-5.4,13.9c-3.6,3.1-8.6,4.8-15.3,4.8h-17.8v20.5
			c0,0,15.1,0.1,20.1,0c5.6-0.1,15.2-0.7,22.2-4.5C767.9,325.7,772,321,775.4,315.1z"/>
		<rect x="691.5" y="344.3" class="st2" width="0" height="20.3"/>
	</g>
	<g>
		<path class="st2" d="M385.5,255.5v25.1c15.3,1.3,27.3,14,27.3,29.6s-12,28.4-27.3,29.6v25.8c29.2-1.4,52.5-25.5,52.5-55
			C438,281,414.7,256.9,385.5,255.5z"/>
		<path class="st2" d="M353.3,310.2c0-15.6,12-28.4,27.3-29.6v-25.1c-29.4,1.2-52.8,25.4-52.8,55c0,29.7,23.4,53.8,52.8,55v-25.8
			C365.3,338.6,353.3,325.8,353.3,310.2z"/>
	</g>
</g>
</svg>
