<?xml version="1.0" encoding="utf-8"?>
<!-- Generator: Adobe Illustrator 22.0.0, SVG Export Plug-In . SVG Version: 6.00 Build 0)  -->
<svg version="1.1" id="Layer_1" xmlns="http://www.w3.org/2000/svg" xmlns:xlink="http://www.w3.org/1999/xlink" x="0px" y="0px"
	 viewBox="0 0 841.9 595.3" style="enable-background:new 0 0 841.9 595.3;" xml:space="preserve">
<style type="text/css">
	.st0{fill:#FFFFFF;}
	.st1{fill:#F12D45;}
	.st2{fill:#2B2B2B;}
</style>
<g>
	<path class="st0" d="M103.1,335.2c-5.8,0-10.9-0.9-15.5-2.8c-4.6-1.9-8.5-4.4-11.6-7.7c-3.2-3.2-5.6-7-7.3-11.2
		c-1.7-4.2-2.5-8.7-2.5-13.3c0-5,0.8-9.7,2.5-14.1c1.7-4.4,4.1-8.3,7.2-11.6c3.1-3.3,7-5.9,11.6-7.8c4.6-1.9,9.8-2.9,15.6-2.9
		c5.8,0,11,1,15.6,2.9c4.5,1.9,8.4,4.5,11.5,7.8c3.1,3.3,5.5,7,7.1,11.3c1.6,4.3,2.4,8.8,2.4,13.5c0,1.2,0,2.4-0.1,3.6
		c-0.1,1.2-0.2,2.2-0.4,3.1H88.4c0.3,4.6,2,8.1,5,10.5c3,2.4,6.4,3.6,10.3,3.6c3.1,0,6-0.7,8.8-2.2c2.8-1.5,4.7-3.5,5.7-6l17.8,5
		c-2.7,5.4-6.9,9.8-12.6,13.2C117.8,333.5,111,335.2,103.1,335.2z M117.6,293.1c-0.4-4.4-2-7.8-4.7-10.3c-2.7-2.5-6.1-3.8-10.1-3.8
		c-4.1,0-7.5,1.3-10.1,3.9c-2.7,2.6-4.2,6-4.6,10.3H117.6z"/>
	<path class="st0" d="M250.6,335.2c-5.8,0-10.9-0.9-15.5-2.8c-4.6-1.9-8.5-4.4-11.6-7.7c-3.2-3.2-5.6-7-7.3-11.2
		c-1.7-4.2-2.5-8.7-2.5-13.3c0-5,0.8-9.7,2.5-14.1c1.7-4.4,4.1-8.3,7.2-11.6c3.1-3.3,7-5.9,11.6-7.8c4.6-1.9,9.8-2.9,15.6-2.9
		c5.8,0,11,1,15.6,2.9c4.5,1.9,8.4,4.5,11.5,7.8c3.1,3.3,5.5,7,7.1,11.3c1.6,4.3,2.4,8.8,2.4,13.5c0,1.2,0,2.4-0.1,3.6
		c-0.1,1.2-0.2,2.2-0.4,3.1H236c0.3,4.6,2,8.1,5,10.5c3,2.4,6.4,3.6,10.3,3.6c3.1,0,6-0.7,8.8-2.2c2.8-1.5,4.7-3.5,5.7-6l17.8,5
		c-2.7,5.4-6.9,9.8-12.6,13.2C265.3,333.5,258.5,335.2,250.6,335.2z M265.1,293.1c-0.4-4.4-2-7.8-4.7-10.3
		c-2.7-2.5-6.1-3.8-10.1-3.8c-4.1,0-7.5,1.3-10.1,3.9c-2.7,2.6-4.2,6-4.6,10.3H265.1z"/>
	<path class="st0" d="M362.9,333.9H342v-38.6c0-4.5-0.9-7.8-2.6-9.9c-1.7-2-3.9-3.1-6.7-3.1c-1.5,0-3,0.3-4.4,0.9
		c-1.5,0.6-2.9,1.5-4.3,2.6c-1.4,1.1-2.6,2.4-3.7,3.9c-1.1,1.5-1.9,3.1-2.6,4.8v39.4h-20.9v-68.7h18.8v11.5
		c2.5-4.1,6.1-7.3,10.7-9.5c4.6-2.2,9.9-3.3,16-3.3c4.4,0,8,0.8,10.7,2.4c2.7,1.6,4.8,3.7,6.3,6.3c1.5,2.6,2.5,5.4,2.9,8.4
		c0.5,3.1,0.7,6,0.7,8.9V333.9z"/>
	<path class="st0" d="M420.6,330.3c-2.9,1.2-6.2,2.4-9.9,3.4c-3.7,1-7.4,1.6-11.2,1.6c-2.6,0-5.1-0.3-7.4-1
		c-2.3-0.7-4.3-1.7-6.1-3.1c-1.7-1.4-3.1-3.3-4.1-5.7c-1-2.4-1.5-5.2-1.5-8.5v-35.8h-8.8v-15.8h8.8v-21.8h20.9v21.8h14v15.8h-14
		v28.6c0,2.3,0.6,3.9,1.7,4.9c1.1,1,2.6,1.5,4.3,1.5c1.6,0,3.2-0.3,4.8-0.8c1.7-0.5,3.1-1.1,4.3-1.7L420.6,330.3z"/>
	<path class="st0" d="M428.7,333.9v-68.7h20.9v68.7H428.7z"/>
	<path class="st0" d="M483.5,335.2c-3.4,0-6.6-0.5-9.5-1.6c-2.9-1.1-5.4-2.6-7.5-4.6c-2.1-2-3.7-4.3-5-6.9c-1.2-2.7-1.8-5.6-1.8-8.7
		c0-3.4,0.7-6.5,2.2-9.3c1.4-2.8,3.5-5.2,6.1-7.2c2.6-2,5.7-3.6,9.3-4.7c3.6-1.1,7.5-1.7,11.9-1.7c2.9,0,5.7,0.2,8.4,0.7
		c2.7,0.5,5.1,1.2,7.1,2.2v-3.1c0-7.9-4.6-11.9-13.7-11.9c-3.7,0-7.3,0.6-10.7,1.9c-3.4,1.3-7,3.2-10.7,5.7l-6.1-13.1
		c4.5-3,9.2-5.2,14.1-6.7c4.9-1.5,10.1-2.2,15.6-2.2c10.4,0,18.4,2.4,24.1,7.3c5.7,4.9,8.5,12,8.5,21.4v17.7c0,2.1,0.3,3.6,1,4.4
		c0.7,0.8,1.8,1.3,3.5,1.5v17.7c-1.8,0.4-3.5,0.7-5,0.9c-1.5,0.1-2.8,0.2-4.1,0.2c-3.9,0-6.9-0.8-8.9-2.3c-2-1.5-3.3-3.7-3.8-6.5
		l-0.4-3.1c-3.1,3.9-6.7,6.9-10.9,9C492.7,334.2,488.2,335.2,483.5,335.2z M489.7,320.2c2.3,0,4.5-0.4,6.6-1.2
		c2.1-0.8,3.9-1.8,5.3-3.1c2-1.6,3-3.2,3-5v-6.5c-1.8-0.7-3.8-1.2-6-1.6c-2.1-0.4-4.1-0.6-5.9-0.6c-3.8,0-7,0.9-9.5,2.6
		c-2.5,1.7-3.7,4-3.7,6.8c0,2.5,1,4.6,2.9,6.2C484.3,319.4,486.7,320.2,489.7,320.2z"/>
	<path class="st0" d="M606.8,333.9h-20.9v-38.6c0-4.5-0.9-7.8-2.6-9.9c-1.7-2-3.9-3.1-6.7-3.1c-1.5,0-3,0.3-4.4,0.9
		c-1.5,0.6-2.9,1.5-4.3,2.6c-1.4,1.1-2.6,2.4-3.7,3.9c-1.1,1.5-1.9,3.1-2.6,4.8v39.4h-20.9v-68.7h18.8v11.5
		c2.5-4.1,6.1-7.3,10.7-9.5c4.6-2.2,9.9-3.3,16-3.3c4.4,0,8,0.8,10.7,2.4c2.7,1.6,4.8,3.7,6.3,6.3c1.5,2.6,2.5,5.4,2.9,8.4
		c0.5,3.1,0.7,6,0.7,8.9V333.9z"/>
	<path class="st0" d="M649.2,335.2c-4.7,0-9-0.9-13-2.7c-4-1.8-7.4-4.3-10.3-7.5c-2.9-3.2-5.1-7-6.7-11.3c-1.6-4.3-2.4-9-2.4-14.2
		c0-5,0.7-9.6,2.2-14c1.5-4.4,3.6-8.1,6.3-11.3c2.7-3.2,5.9-5.7,9.6-7.5c3.7-1.8,7.8-2.7,12.2-2.7c4.8,0,9.1,1.1,13,3.4
		c3.9,2.3,6.9,5.3,9,9.2v-38.1H690v71.9c0,2.1,0.3,3.6,1,4.4c0.7,0.8,1.8,1.3,3.5,1.5v17.7c-1.9,0.4-3.6,0.7-5,0.9
		c-1.4,0.1-2.7,0.2-3.9,0.2c-3.7,0-6.6-0.8-8.9-2.3c-2.3-1.5-3.6-3.7-3.9-6.6l-0.4-3.5c-2.4,4.3-5.7,7.5-9.9,9.5
		C658.3,334.2,653.9,335.2,649.2,335.2z M654.8,317.6c2.9,0,5.6-0.9,8.3-2.6c2.7-1.7,4.7-4,6.1-7v-14.4c-1.3-3.5-3.4-6.3-6.3-8.6
		c-2.9-2.2-5.9-3.3-9.1-3.3c-2.3,0-4.3,0.5-6.2,1.5c-1.9,1-3.5,2.3-4.9,4c-1.4,1.7-2.5,3.6-3.2,5.8c-0.7,2.2-1.1,4.5-1.1,6.9
		c0,2.5,0.4,4.9,1.2,7.1c0.8,2.2,2,4.1,3.4,5.6s3.2,2.8,5.2,3.7C650.3,317.1,652.5,317.6,654.8,317.6z"/>
	<path class="st0" d="M738.9,335.2c-5.8,0-11.1-1-15.6-2.9c-4.6-1.9-8.4-4.5-11.6-7.8s-5.5-7.1-7.1-11.4c-1.6-4.3-2.4-8.8-2.4-13.5
		c0-4.7,0.8-9.2,2.4-13.5c1.6-4.3,4-8.1,7.1-11.4s7-5.9,11.6-7.8c4.6-2,9.8-2.9,15.6-2.9c5.8,0,11,1,15.6,2.9
		c4.5,2,8.4,4.6,11.5,7.8c3.1,3.3,5.5,7.1,7.2,11.4c1.7,4.3,2.5,8.8,2.5,13.5c0,4.7-0.8,9.2-2.4,13.5c-1.6,4.3-4,8.1-7.1,11.4
		c-3.1,3.3-7,5.9-11.6,7.8C750,334.3,744.8,335.2,738.9,335.2z M723.6,299.7c0,5.4,1.4,9.7,4.3,13c2.9,3.3,6.5,4.9,11,4.9
		c2.2,0,4.2-0.4,6-1.3c1.8-0.9,3.4-2.1,4.8-3.7c1.4-1.6,2.4-3.5,3.2-5.7s1.2-4.6,1.2-7.3c0-5.4-1.4-9.7-4.3-13
		c-2.9-3.3-6.5-4.9-10.9-4.9c-2.2,0-4.2,0.4-6.1,1.3c-1.9,0.9-3.5,2.1-4.8,3.7c-1.4,1.6-2.4,3.5-3.2,5.7
		C724,294.6,723.6,297,723.6,299.7z"/>
	<g>
		<polygon class="st1" points="212.2,263.7 192.7,263.7 181.3,298 190.2,320.3 		"/>
		<polygon class="st1" points="165.4,326.2 187.5,326.2 187.4,326 165.3,326 		"/>
		<polygon class="st1" points="162.2,263.1 140.2,263.1 165.3,326 187.4,326 		"/>
	</g>
	<g>
		<circle class="st0" cx="176.9" cy="347" r="14.3"/>
	</g>
	<g>
		<circle class="st0" cx="439" cy="245.7" r="11.8"/>
	</g>
</g>
</svg>
