<?xml version="1.0" encoding="utf-8"?>
<!-- Generator: Adobe Illustrator 22.0.0, SVG Export Plug-In . SVG Version: 6.00 Build 0)  -->
<svg version="1.1" id="Layer_1" xmlns="http://www.w3.org/2000/svg" xmlns:xlink="http://www.w3.org/1999/xlink" x="0px" y="0px"
	 viewBox="0 0 315.1 307.4" style="enable-background:new 0 0 315.1 307.4;" xml:space="preserve">
<style type="text/css">
	.st0{fill:#D9E9E7;}
	.st1{clip-path:url(#SVGID_2_);}
	.st2{fill:#1D1F27;}
	.st3{fill:#FFA312;}
	.st4{opacity:0.3;fill:#FFED52;}
	.st5{fill:#DC711F;}
	.st6{fill:#B1B1B1;}
	.st7{fill:#FFFFFF;}
	.st8{fill:#FFFF43;}
</style>
<circle class="st0" cx="174.2" cy="163.1" r="119.9"/>
<g>
	<defs>
		<path id="SVGID_1_" d="M294.1,163.1c0,66.2-53.7,119.9-119.9,119.9S14.7,235.5,14.7,169.3S108,43.2,174.2,43.2
			S294.1,96.9,294.1,163.1z"/>
	</defs>
	<clipPath id="SVGID_2_">
		<use xlink:href="#SVGID_1_"  style="overflow:visible;"/>
	</clipPath>
	<g class="st1">
		<g>
			<path class="st2" d="M237.8,151.2c0,0-9.1-23.8-39.5-36.7c-30.4-12.9-51.7-14.4-55.1-11.6c0,0,0.2-0.2,0.3-0.5l-23.2,3.5
				c0-15.1,28.5-27.6,43.7-25.5c12.3,1.7,51.3,14.1,66.7,32.4C240.5,124.7,240.7,144.2,237.8,151.2z"/>
		</g>
		<path class="st3" d="M247.1,274c14.9-19.7,32.3-37.7,50.3-54.2c5.1-4.7,10.4-9.3,15.7-13.8c-36-7.7-59.6-27.1-75.6-46.4
			c0.3-2,0.4-4.1,0.4-6.2c0-26.1-21.2-47.3-47.3-47.3c-2.9,0-5.6,0.3-8.4,0.7c-6.7-0.4-13.5,0-19.9,0.6c-6.5-3.6-14-5.7-22-5.7
			c-21,0-38.6,14.3-43.6,33.7c-34.3,12.9-75,25.7-58.8,45.8c42.8,53.2,94.7,29.2,183.6,72.4C227.9,261.1,236.6,267.8,247.1,274z"/>
		<path class="st4" d="M246.9,274.1c5.4-7.2,11.1-14.1,17.1-20.8c-11.5-8.7-22.9-24.7-31.7-56.2c-4.8-17.2-36.1-5.5-53.1-1.4
			c-16,3.8-110.2,7.6-141.7-31.5c-4.9,6.4-4,11.6,0.4,16.9c42.8,51.8,94.7,29.2,183.6,72.4C230.3,261.8,237.7,268.3,246.9,274.1z"/>
		<g>
			<path class="st5" d="M36,178.4c2.8,2.8,6,5.3,9.2,7.7c3.2,2.4,6.6,4.5,10,6.6c6.9,4.1,14.2,7.4,21.6,10.2c7.5,2.8,15.2,5,23,6.6
				c7.8,1.7,15.7,2.6,23.7,3.2c8,0.6,15.9,0.5,23.9,0.2c4-0.3,8-0.5,11.9-1c2-0.2,4-0.4,5.9-0.7l5.9-0.9
				c15.7-2.5,31.2-6.5,46.3-11.6l1,2.9c-15.3,4.9-31,8.7-46.9,11l-6,0.8c-2,0.2-4,0.4-6,0.6c-4,0.4-8,0.6-12,0.8
				c-8,0.2-16.1,0.2-24.1-0.6c-8-0.7-16-1.8-23.8-3.6c-7.8-1.8-15.5-4.1-23-7c-7.5-2.9-14.7-6.4-21.6-10.6c-3.4-2.1-6.8-4.3-10-6.7
				C41.9,183.9,38.8,181.3,36,178.4z"/>
		</g>
		<g>
			<path class="st5" d="M221.4,211.8c-0.5-1.8-0.9-3.5-1.3-5.2c-0.4-1.7-0.8-3.3-1.4-4.8c-0.6-1.5-1.2-2.9-2.2-4.1
				c-0.5-0.6-1-1.1-1.7-1.6c-0.7-0.5-1.4-0.9-2.3-1.3c0.9-0.3,1.9-0.3,2.9-0.1c1,0.2,1.9,0.6,2.7,1.2c1.7,1.2,2.7,3,3.4,4.8
				c0.6,1.8,0.9,3.7,0.9,5.6C222.4,208.2,222.1,210,221.4,211.8z"/>
		</g>
		<ellipse transform="matrix(0.5 -0.866 0.866 0.5 -1.6103 186.2953)" class="st6" cx="160.5" cy="94.5" rx="29.8" ry="21.4"/>
		<ellipse transform="matrix(0.5 -0.866 0.866 0.5 -0.5652 182.642)" class="st7" cx="157.9" cy="91.8" rx="27.1" ry="17.7"/>
		<ellipse transform="matrix(0.5 -0.866 0.866 0.5 5.692506e-04 182.057)" class="st6" cx="157.7" cy="91" rx="4.2" ry="3"/>
		<path class="st3" d="M163.2,187.9c10.6-0.3,20.6-3.4,31-5.6c11.6-2.5,23.1-4.5,34.2-8.6c0.7-0.3,1.5-0.4,2.2-0.6
			c3.5-6.4,5.5-13.8,5.5-21.6c0-25.2-20.4-45.5-45.5-45.5S145,126.3,145,151.5C145,166.3,152.1,179.6,163.2,187.9z"/>
		<path class="st8" d="M190.5,186.2c-18.1,0-32.8-14.7-32.8-32.8c0-18.1,14.7-32.8,32.8-32.8c18.1,0,32.8,14.7,32.8,32.8
			C223.4,171.5,208.7,186.2,190.5,186.2z"/>
		<path class="st2" d="M199,154.4c-2.2,13.9-10.9,24.1-10.9,24.1s-6.4-12.6-4.3-26.5c2.2-13.9,12.2-23.9,12.2-23.9
			S201.2,140.5,199,154.4z"/>
		<g>
			<defs>
				<path id="SVGID_3_" d="M346.7,209.3c-55.8,0-88.7-25.1-109.3-49.8c0.3-2,0.4-4.1,0.4-6.2c0-26.1-21.2-47.3-47.3-47.3
					c-2.9,0-5.6,0.3-8.4,0.7c-6.7-0.4-13.5,0-19.9,0.6c-6.5-3.6-14-5.7-22-5.7c-21,0-38.6,14.3-43.6,33.7
					c-34.3,12.9-75,25.7-58.8,45.8c42.8,53.2,94.7,29.2,183.6,72.4"/>
			</defs>
			<clipPath id="SVGID_4_">
				<use xlink:href="#SVGID_3_"  style="overflow:visible;"/>
			</clipPath>
		</g>
	</g>
</g>
</svg>
