<?xml version="1.0" encoding="utf-8"?>
<!-- Generator: Adobe Illustrator 22.0.0, SVG Export Plug-In . SVG Version: 6.00 Build 0)  -->
<svg version="1.1" id="Layer_1" xmlns="http://www.w3.org/2000/svg" xmlns:xlink="http://www.w3.org/1999/xlink" x="0px" y="0px"
	 viewBox="0 0 422.9 123.1" style="enable-background:new 0 0 422.9 123.1;" xml:space="preserve">
<style type="text/css">
	.st0{fill:#FFFFFF;}
	.st1{fill:#FFFF43;}
</style>
<g>
	<path class="st0" d="M79.8,100.8c-7.5,6.9-16.1,10.4-25.9,10.4c-6.5,0-12.5-1.2-18.3-3.7c-5.7-2.4-10.7-5.9-15-10.3
		c-4.3-4.4-7.7-9.8-10.2-16C8,75,6.8,68.1,6.8,60.6c0-6.7,1.2-13.1,3.7-19.1c2.5-6,5.9-11.2,10.3-15.6c4.4-4.4,9.6-7.9,15.6-10.5
		c6-2.6,12.5-3.9,19.4-3.9c9.1,0,17.1,1.9,23.9,5.7c6.8,3.8,11.9,9.1,15.4,15.7L78.2,45.7c-2.2-4.4-5.4-7.9-9.6-10.3
		c-4.2-2.4-8.7-3.7-13.6-3.7c-3.8,0-7.2,0.8-10.3,2.3c-3.1,1.5-5.7,3.6-8,6.4c-2.2,2.7-3.9,5.9-5.1,9.5c-1.2,3.6-1.8,7.5-1.8,11.6
		c0,4.2,0.6,8.2,1.9,11.8c1.3,3.6,3.1,6.7,5.4,9.3c2.3,2.6,5,4.7,8.2,6.2c3.2,1.5,6.7,2.2,10.6,2.2c8.9,0,16.8-4.1,23.9-12.3v-3
		H60.7V59.1h37.9v51.3H79.8V100.8z"/>
	<path class="st0" d="M146.5,111.8c-6.1,0-11.6-1-16.4-3c-4.8-2-8.9-4.7-12.3-8.1c-3.4-3.4-5.9-7.4-7.7-11.8
		c-1.8-4.5-2.6-9.2-2.6-14c0-5.3,0.9-10.2,2.6-14.9c1.8-4.7,4.3-8.7,7.6-12.2c3.3-3.5,7.4-6.3,12.2-8.3c4.8-2,10.4-3,16.5-3
		c6.2,0,11.7,1,16.5,3c4.8,2,8.9,4.8,12.2,8.2c3.3,3.5,5.8,7.5,7.5,12c1.7,4.5,2.6,9.3,2.6,14.3c0,1.3-0.1,2.6-0.1,3.8
		c-0.1,1.2-0.2,2.3-0.4,3.3H131c0.4,4.9,2.1,8.6,5.3,11.1c3.2,2.5,6.8,3.8,10.9,3.8c3.2,0,6.3-0.8,9.3-2.4c3-1.6,5-3.7,6-6.4
		l18.8,5.3c-2.9,5.7-7.3,10.4-13.3,14C162.1,110,154.9,111.8,146.5,111.8z M161.9,67.3c-0.5-4.6-2.1-8.3-5-10.9
		c-2.9-2.7-6.4-4-10.7-4c-4.3,0-7.9,1.4-10.7,4.1c-2.8,2.7-4.4,6.3-4.9,10.9H161.9z"/>
	<path class="st0" d="M191.1,74.1c0-5,0.9-9.8,2.6-14.3c1.8-4.6,4.3-8.6,7.6-12c3.3-3.5,7.4-6.2,12.2-8.2c4.8-2,10.4-3,16.5-3
		c8.4,0,15.5,1.8,21.2,5.3c5.7,3.6,10,8.2,12.9,13.9l-21.6,6.5c-2.9-4.6-7.1-6.9-12.6-6.9c-4.6,0-8.5,1.7-11.6,5.1
		c-3.1,3.4-4.6,8-4.6,13.7c0,2.9,0.4,5.5,1.2,7.8c0.8,2.4,2,4.4,3.5,6c1.5,1.7,3.2,3,5.2,3.9c2,0.9,4.1,1.4,6.3,1.4
		c2.8,0,5.3-0.7,7.6-2c2.3-1.3,4-3.1,5.1-5.2l21.6,6.6c-2.7,5.6-6.9,10.2-12.8,13.8c-5.9,3.6-13,5.4-21.4,5.4
		c-6.1,0-11.6-1-16.4-3.1c-4.8-2.1-8.9-4.8-12.3-8.3c-3.4-3.5-5.9-7.5-7.7-12C192,83.8,191.1,79,191.1,74.1z"/>
	<path class="st0" d="M319,110.4l-19-29.2l-7.7,8v21.2h-22.1V9.4h22.1V68l24.5-30.2h23.5l-26.2,31.3l28.4,41.4H319z"/>
	<path class="st1" d="M413.1,59.9c-1.8-4.6-4.3-8.6-7.6-12c-3.3-3.5-7.4-6.2-12.2-8.3c-4.8-2.1-10.3-3.1-16.5-3.1
		c-6.2,0-11.7,1-16.5,3.1c-4.8,2.1-8.9,4.8-12.2,8.3c-3.3,3.5-5.8,7.5-7.5,12c-1.7,4.6-2.6,9.3-2.6,14.3c0,5,0.9,9.8,2.6,14.3
		c1.7,4.6,4.2,8.6,7.5,12c3.3,3.5,7.4,6.2,12.2,8.2c4.8,2,10.4,3,16.5,3c6.2,0,11.7-1,16.5-3c4.8-2,8.9-4.8,12.2-8.2
		c3.3-3.5,5.8-7.5,7.5-12c1.7-4.6,2.6-9.3,2.6-14.3C415.8,69.2,414.9,64.4,413.1,59.9z M376.9,104.3c-7.1-8.1-11.4-18.7-11.4-30.3
		c0-11.6,4.3-22.2,11.4-30.3c7.1,8.1,11.4,18.7,11.4,30.3C388.3,85.5,384,96.1,376.9,104.3z"/>
</g>
</svg>
