<?xml version="1.0" encoding="utf-8"?>
<!-- Generator: Adobe Illustrator 22.0.0, SVG Export Plug-In . SVG Version: 6.00 Build 0)  -->
<svg version="1.1" id="Layer_1" xmlns="http://www.w3.org/2000/svg" xmlns:xlink="http://www.w3.org/1999/xlink" x="0px" y="0px"
	 viewBox="0 0 422.9 309.1" style="enable-background:new 0 0 422.9 309.1;" xml:space="preserve">
<style type="text/css">
	.st0{fill:#D9E9E7;}
	.st1{clip-path:url(#SVGID_2_);}
	.st2{fill:#1D1F27;}
	.st3{fill:#FFA312;}
	.st4{opacity:0.3;fill:#FFED52;}
	.st5{fill:#DC711F;}
	.st6{fill:#B1B1B1;}
	.st7{fill:#FFFFFF;stroke:#D5D5D5;stroke-width:0.4516;stroke-miterlimit:10;}
	.st8{fill:#FFFF43;}
</style>
<circle class="st0" cx="218.4" cy="105.4" r="61.5"/>
<g>
	<defs>
		<path id="SVGID_1_" d="M279.9,105.4c0,34-27.5,61.5-61.5,61.5s-81.8-24.4-81.8-58.3S184.5,44,218.4,44S279.9,71.5,279.9,105.4z"/>
	</defs>
	<clipPath id="SVGID_2_">
		<use xlink:href="#SVGID_1_"  style="overflow:visible;"/>
	</clipPath>
	<g class="st1">
		<g>
			<path class="st2" d="M251.1,99.3c0,0-4.7-12.2-20.3-18.8c-15.6-6.6-26.5-7.4-28.2-6c0,0,0.1-0.1,0.2-0.2l-11.9,1.8
				c0-7.7,14.6-14.2,22.4-13.1c6.3,0.9,26.3,7.2,34.2,16.6C252.5,85.7,252.6,95.8,251.1,99.3z"/>
		</g>
		<path class="st3" d="M255.8,162.3c7.6-10.1,16.5-19.4,25.8-27.8c2.6-2.4,5.3-4.8,8.1-7.1c-18.5-3.9-30.5-13.9-38.8-23.8
			c0.1-1,0.2-2.1,0.2-3.2c0-13.4-10.9-24.3-24.3-24.3c-1.5,0-2.9,0.1-4.3,0.4c-3.4-0.2-6.9,0-10.2,0.3c-3.3-1.9-7.2-2.9-11.3-2.9
			c-10.8,0-19.8,7.3-22.4,17.3c-17.6,6.6-38.5,13.2-30.1,23.5c22,27.3,48.6,14.9,94.1,37.1C246,155.7,250.5,159.2,255.8,162.3z"/>
		<path class="st4" d="M255.8,162.4c2.8-3.7,5.7-7.2,8.8-10.7c-5.9-4.5-11.8-12.7-16.3-28.8c-2.5-8.8-18.5-2.8-27.2-0.7
			c-8.2,1.9-56.5,3.9-72.7-16.2c-2.5,3.3-2,5.9,0.2,8.7c22,26.5,48.6,14.9,94.1,37.1C247.2,156,251,159.4,255.8,162.4z"/>
		<g>
			<path class="st5" d="M147.6,113.3c1.5,1.5,3.1,2.7,4.7,4c1.7,1.2,3.4,2.3,5.1,3.4c3.5,2.1,7.3,3.8,11.1,5.2
				c7.7,2.9,15.8,4.5,23.9,5.1c8.2,0.6,16.4,0.1,24.4-1.2c8.1-1.3,16-3.3,23.8-5.9l0.5,1.5c-7.9,2.5-15.9,4.5-24.1,5.6
				c-8.2,1.2-16.5,1.5-24.7,0.8c-8.2-0.7-16.3-2.5-24-5.5c-3.8-1.5-7.5-3.3-11.1-5.4c-1.8-1.1-3.5-2.2-5.1-3.4
				C150.6,116.1,149,114.8,147.6,113.3z"/>
		</g>
		<g>
			<path class="st5" d="M242.7,130.4c-0.5-1.8-0.8-3.5-1.4-5.1c-0.3-0.8-0.6-1.5-1.1-2.1c-0.5-0.6-1.2-1.1-2-1.5
				c0.9-0.2,2,0,2.9,0.6c0.9,0.6,1.4,1.6,1.7,2.5c0.3,0.9,0.5,1.9,0.5,2.8C243.2,128.6,243,129.5,242.7,130.4z"/>
		</g>
		<ellipse transform="matrix(0.5 -0.866 0.866 0.5 44.8523 218.2616)" class="st6" cx="211.4" cy="70.3" rx="15.3" ry="11"/>
		<ellipse transform="matrix(0.5 -0.866 0.866 0.5 45.3882 216.3881)" class="st7" cx="210.1" cy="68.9" rx="13.9" ry="9.1"/>
		<ellipse transform="matrix(0.5 -0.866 0.866 0.5 45.6784 216.0881)" class="st6" cx="210" cy="68.5" rx="2.1" ry="1.5"/>
		<path class="st3" d="M212.8,118.1c5.5-0.1,10.6-1.8,15.9-2.9c5.9-1.3,11.9-2.3,17.6-4.4c0.4-0.1,0.8-0.2,1.1-0.3
			c1.8-3.3,2.8-7.1,2.8-11.1c0-12.9-10.5-23.4-23.4-23.4s-23.4,10.5-23.4,23.4C203.5,107.1,207.1,113.9,212.8,118.1z"/>
		<path class="st8" d="M226.8,117.3c-9.3,0-16.8-7.5-16.8-16.8c0-9.3,7.5-16.8,16.8-16.8c9.3,0,16.8,7.5,16.8,16.8
			C243.7,109.7,236.1,117.3,226.8,117.3z"/>
		<path class="st2" d="M231.2,101c-1.1,7.1-5.6,12.4-5.6,12.4s-3.3-6.5-2.2-13.6c1.1-7.1,6.3-12.3,6.3-12.3S232.3,93.8,231.2,101z"
			/>
		<g>
			<defs>
				<path id="SVGID_3_" d="M306.9,129.2c-28.6,0-45.5-12.8-56-25.6c0.1-1,0.2-2.1,0.2-3.2c0-13.4-10.9-24.3-24.3-24.3
					c-1.5,0-2.9,0.1-4.3,0.4c-3.4-0.2-6.9,0-10.2,0.3c-3.3-1.9-7.2-2.9-11.3-2.9c-10.8,0-19.8,7.3-22.4,17.3
					c-17.6,6.6-38.5,13.2-30.1,23.5c22,27.3,48.6,14.9,94.1,37.1"/>
			</defs>
			<clipPath id="SVGID_4_">
				<use xlink:href="#SVGID_3_"  style="overflow:visible;"/>
			</clipPath>
		</g>
	</g>
</g>
<g>
	<path class="st2" d="M108,263.2c-6.1,5.7-13.2,8.5-21.2,8.5c-5.3,0-10.3-1-15-3c-4.7-2-8.8-4.8-12.3-8.4c-3.5-3.6-6.3-8-8.3-13.1
		c-2-5.1-3.1-10.7-3.1-16.8c0-5.5,1-10.7,3.1-15.6c2-4.9,4.9-9.2,8.4-12.8c3.6-3.6,7.8-6.5,12.7-8.6c4.9-2.1,10.2-3.2,15.9-3.2
		c7.5,0,14,1.6,19.6,4.7c5.6,3.1,9.8,7.4,12.6,12.9l-13.8,10.4c-1.8-3.6-4.4-6.4-7.9-8.4c-3.4-2-7.2-3-11.2-3
		c-3.1,0-5.9,0.6-8.4,1.9c-2.5,1.2-4.7,3-6.5,5.2c-1.8,2.2-3.2,4.8-4.2,7.8c-1,2.9-1.5,6.1-1.5,9.5c0,3.5,0.5,6.7,1.6,9.6
		c1.1,2.9,2.5,5.5,4.4,7.6c1.9,2.2,4.1,3.8,6.7,5c2.6,1.2,5.5,1.8,8.7,1.8c7.2,0,13.8-3.4,19.6-10.1v-2.5H92.4v-13.5h31v42H108
		V263.2z"/>
	<path class="st2" d="M162.6,272.3c-5,0-9.5-0.8-13.4-2.4c-4-1.6-7.3-3.8-10.1-6.6c-2.8-2.8-4.9-6-6.3-9.7
		c-1.4-3.7-2.2-7.5-2.2-11.5c0-4.3,0.7-8.4,2.2-12.2c1.4-3.8,3.5-7.2,6.2-10c2.7-2.9,6.1-5.1,10-6.8c4-1.7,8.5-2.5,13.5-2.5
		c5.1,0,9.5,0.8,13.5,2.5c3.9,1.7,7.3,3.9,10,6.7c2.7,2.8,4.8,6.1,6.2,9.8c1.4,3.7,2.1,7.6,2.1,11.7c0,1.1,0,2.1-0.1,3.1
		c-0.1,1-0.2,1.9-0.3,2.7h-44c0.3,4,1.8,7,4.4,9.1c2.6,2.1,5.6,3.1,8.9,3.1c2.6,0,5.2-0.6,7.6-1.9c2.5-1.3,4.1-3,4.9-5.2l15.4,4.3
		c-2.3,4.7-6,8.5-10.9,11.4C175.4,270.8,169.5,272.3,162.6,272.3z M175.2,235.8c-0.4-3.8-1.7-6.8-4.1-8.9c-2.3-2.2-5.2-3.3-8.7-3.3
		c-3.5,0-6.5,1.1-8.8,3.3c-2.3,2.2-3.6,5.2-4,8.9H175.2z"/>
	<path class="st2" d="M199.1,241.4c0-4.1,0.7-8,2.2-11.7s3.5-7,6.2-9.9c2.7-2.8,6.1-5.1,10-6.7c4-1.7,8.5-2.5,13.5-2.5
		c6.9,0,12.6,1.5,17.3,4.4c4.7,2.9,8.2,6.7,10.5,11.4l-17.7,5.3c-2.3-3.8-5.8-5.7-10.3-5.7c-3.8,0-6.9,1.4-9.5,4.2
		c-2.5,2.8-3.8,6.5-3.8,11.2c0,2.3,0.3,4.5,1,6.4c0.7,1.9,1.6,3.6,2.8,4.9c1.2,1.4,2.6,2.4,4.2,3.2c1.6,0.8,3.3,1.1,5.2,1.1
		c2.3,0,4.3-0.5,6.2-1.6c1.9-1.1,3.3-2.5,4.2-4.2l17.7,5.4c-2.2,4.6-5.7,8.4-10.5,11.3c-4.8,2.9-10.6,4.4-17.5,4.4
		c-5,0-9.5-0.9-13.4-2.5c-4-1.7-7.3-4-10.1-6.8c-2.8-2.8-4.9-6.1-6.3-9.9C199.8,249.3,199.1,245.4,199.1,241.4z"/>
	<path class="st2" d="M303.8,271.1l-15.5-23.9l-6.3,6.6v17.3h-18.1v-82.7h18.1v47.9l20-24.7h19.3l-21.4,25.6l23.2,33.9H303.8z"/>
	<path class="st2" d="M380.8,229.7c-1.4-3.7-3.5-7-6.2-9.9c-2.7-2.8-6-5.1-10-6.8c-3.9-1.7-8.4-2.5-13.5-2.5s-9.6,0.9-13.5,2.5
		c-4,1.7-7.3,4-10,6.8c-2.7,2.8-4.8,6.1-6.2,9.9c-1.4,3.7-2.1,7.6-2.1,11.7c0,4.1,0.7,8,2.1,11.7c1.4,3.7,3.5,7,6.2,9.9
		c2.7,2.8,6.1,5.1,10,6.7c4,1.7,8.5,2.5,13.5,2.5s9.6-0.8,13.5-2.5c4-1.7,7.3-3.9,10-6.7c2.7-2.8,4.8-6.1,6.2-9.9
		c1.4-3.7,2.1-7.6,2.1-11.7C383,237.4,382.3,233.5,380.8,229.7z M351.2,266.1c-5.8-6.6-9.3-15.3-9.3-24.8c0-9.5,3.5-18.2,9.3-24.8
		c5.8,6.6,9.3,15.3,9.3,24.8C360.5,250.8,357,259.4,351.2,266.1z"/>
</g>
</svg>
