<?xml version="1.0" encoding="utf-8"?>
<!-- Generator: Adobe Illustrator 22.0.0, SVG Export Plug-In . SVG Version: 6.00 Build 0)  -->
<svg version="1.1" id="Layer_1" xmlns="http://www.w3.org/2000/svg" xmlns:xlink="http://www.w3.org/1999/xlink" x="0px" y="0px"
	 viewBox="0 0 1921.8 1902" style="enable-background:new 0 0 1921.8 1902;" xml:space="preserve">
<style type="text/css">
	.st0{fill:#FFFFFF;}
</style>
<g>
	<g>
		<path class="st0" d="M356.6,1575.2h-29.5v-109.9h29.2v6.2c10.1-5.9,18.8-8.8,25.9-8.8c11.9,0,21,3.4,27.5,10.3
			c13.5-6.9,25.8-10.3,36.9-10.3c14.5,0,24.6,4.2,30.2,12.6c5.6,8.4,8.5,21.9,8.5,40.3v59.6H456v-58.7c0-9.4-1-16.3-3.1-20.8
			c-2.1-4.5-6.2-6.7-12.3-6.7c-4.7,0-10.4,1-17.1,3.1l-3.3,1.1c0.6,11,0.9,19.3,0.9,25.1v56.9h-29.5v-56.5c0-10.8-1-18.5-2.9-23
			c-1.9-4.5-6.1-6.7-12.5-6.7c-5.7,0-11.4,1-16.9,3.1l-2.6,0.9V1575.2z"/>
		<path class="st0" d="M511.6,1451.2v-29.9h29.5v29.9H511.6z M511.6,1575.2v-109.9h29.5v109.9H511.6z"/>
		<path class="st0" d="M609.4,1462.7c7.6,0,17.4,1.2,29.2,3.5l5.9,1.3l-0.9,23.3c-11.6-1.2-20.2-1.8-25.7-1.8
			c-10.1,0-16.8,2.2-20.1,6.5c-3.3,4.3-4.9,12.5-4.9,24.5c0,12,1.6,20.3,4.9,24.7c3.3,4.5,10.1,6.7,20.3,6.7l25.5-1.8l0.9,23.5
			c-15.7,3.1-27.6,4.6-35.8,4.6c-16.3,0-28-4.6-35.1-13.7c-7.1-9.2-10.7-23.9-10.7-44.1c0-20.2,3.7-34.9,11-43.9
			C581.4,1467.2,593.2,1462.7,609.4,1462.7z"/>
		<path class="st0" d="M666.4,1575.2v-109.9h29.2v11.7c12.3-7.3,24-12.1,35.2-14.3v29.7c-11.9,2.5-22.1,5.1-30.6,7.7l-4.4,1.5v73.7
			H666.4z"/>
		<path class="st0" d="M754.1,1477.7c7.8-10,20.7-15.1,38.9-15.1c18.2,0,31.1,5,38.9,15.1c7.8,10,11.7,24.2,11.7,42.3
			c0,38.6-16.9,57.8-50.6,57.8c-33.7,0-50.6-19.3-50.6-57.8C742.5,1501.9,746.4,1487.8,754.1,1477.7z M776.9,1544.9
			c3,5.3,8.4,7.9,16.2,7.9c7.8,0,13.2-2.6,16.2-7.9c3-5.3,4.5-13.6,4.5-24.8c0-11.3-1.5-19.5-4.5-24.6c-3-5.1-8.4-7.7-16.2-7.7
			c-7.8,0-13.2,2.6-16.2,7.7c-3,5.1-4.5,13.3-4.5,24.6C772.4,1531.3,773.9,1539.6,776.9,1544.9z"/>
		<path class="st0" d="M918.4,1462.7c15.4,0,26.6,4.2,33.8,12.6c7.1,8.4,10.7,23.5,10.7,45.2c0,21.7-4.1,36.7-12.3,45
			c-8.2,8.3-22.4,12.4-42.4,12.4c-6.3,0-17.8-0.7-34.5-2.2l-8.4-0.9v-153.5h29.5v47.3C904,1464.6,911.9,1462.7,918.4,1462.7z
			 M908,1551.5c9.8,0,16.4-2.4,19.8-7.1c3.4-4.8,5.1-13.3,5.1-25.6c0-19.8-6.2-29.7-18.5-29.7c-5.9,0-11.4,0.7-16.7,2.2l-3.1,0.7
			v58.7C901.4,1551.2,905.8,1551.5,908,1551.5z"/>
		<path class="st0" d="M984.8,1575.2v-109.9h29.2v11.7c12.3-7.3,24-12.1,35.2-14.3v29.7c-11.9,2.5-22.1,5.1-30.6,7.7l-4.4,1.5v73.7
			H984.8z"/>
		<path class="st0" d="M1096.1,1547.4c3.4,3,8.4,4.5,14.8,4.5c13.6,0,25.8-0.4,36.5-1.3l6.2-0.7l0.4,21.8
			c-16.9,4.1-32.1,6.2-45.7,6.2c-16.6,0-28.6-4.4-36.1-13.2s-11.2-23.1-11.2-42.9c0-39.4,16.2-59.1,48.6-59.1
			c32,0,47.9,16.6,47.9,49.7l-2.2,20.4h-64.6C1090.9,1539.5,1092.7,1544.4,1096.1,1547.4z M1128.6,1510.4c0-8.8-1.4-14.9-4.2-18.4
			c-2.8-3.4-7.7-5.2-14.6-5.2c-7,0-11.9,1.8-14.7,5.4c-2.9,3.6-4.4,9.6-4.5,18.1H1128.6z"/>
		<path class="st0" d="M1170.3,1465.3h29l13.4,84.9h5.3l16.7-82.7h30.3l16.7,82.7h5.3l13.4-84.9h29l-20.9,109.9h-46.2l-12.5-67.3
			l-12.5,67.3h-46.2L1170.3,1465.3z"/>
		<path class="st0" d="M1350.2,1575.2V1553h14.5v22.2H1350.2z"/>
		<path class="st0" d="M1472.2,1498.1v58.9c0.6,5.4,5.3,8.7,14.3,9.7l-0.7,10.6c-11.3,0-19.6-2.9-24.8-8.8c-13.8,6-27.6,9-41.3,9
			c-9.8,0-17.3-2.8-22.4-8.5c-5.1-5.6-7.7-13.7-7.7-24.2c0-10.5,2.6-18.3,7.8-23.3c5.2-5.1,13.4-8.2,24.5-9.3l37.4-3.7v-10.3
			c0-8.2-1.8-14.1-5.4-17.7c-3.6-3.6-8.4-5.4-14.4-5.4c-9.4,0-21.5,0.9-36.5,2.6l-6.8,0.7l-0.7-10.6c16.1-3.1,30.2-4.6,42.3-4.6
			c12.1,0,20.8,2.9,26.3,8.6C1469.5,1477.4,1472.2,1486.2,1472.2,1498.1z M1403.2,1544c0,14.8,6.1,22.2,18.2,22.2
			c5.3,0,11.1-0.6,17.4-1.9c6.3-1.2,11.3-2.5,15-3.8l5.5-2v-39.8l-35.8,3.7c-7.2,0.6-12.4,2.6-15.5,6.2
			C1404.7,1532.1,1403.2,1537.3,1403.2,1544z"/>
		<path class="st0" d="M1506.3,1575.2v-109.9h13v15.8c5.4-3.8,12.1-7.5,19.9-11c7.8-3.5,15.1-5.9,21.7-7v13.2
			c-6.3,1.3-12.9,3.3-19.8,6c-6.9,2.7-12.2,5.1-16.1,7.1l-5.7,3.3v82.5H1506.3z"/>
	</g>
	<path class="st0" d="M1362.2,536.6c0,6.4,2.9,9.6,8.6,9.6c4.4,0,9.3-0.7,14.6-2.1l2.6-0.7v-18.8l-16,1.4
		C1365.4,526.7,1362.2,530.2,1362.2,536.6z"/>
	<path class="st0" d="M1398.1,324.1c-89.4,0-164.8,59.7-188.7,141.4c-83.1-83.6-198.1-135.6-325.2-136.2
		c-256.1-1.2-463.4,204.7-463.8,460.9c-0.4,255.3,206.4,462.4,461.6,462.4c254.9,0,461.6-206.7,461.6-461.6
		c0-28.6-2.6-56.6-7.6-83.8c19.5,6.5,40.3,10,62,10c108.7,0,196.7-88.1,196.6-196.8C1594.5,411.6,1506.9,324.1,1398.1,324.1z
		 M911.6,704.9c0-4.1,3.9-7.3,8.8-7.3h16.4c0-10.5,8.6-19,19.1-19c10.5,0,19.1,8.5,19.1,19.1v62.2c0,10.5-8.5,19.1-19.1,19.1
		c-10.5,0-19-8.5-19.1-19h-16.4c-4.9,0-8.8-3.3-8.8-7.3V704.9z M730.9,760.4h-9.3V694h18.5v-18.7c-5.6-3.2-9.4-9.2-9.4-16.2
		c0-10.3,8.3-18.6,18.6-18.6h4.3l42.8-210.1c3.4-16.4,20-26.5,36.2-21.8l22.7,6.6c16.1,4.7,24.7,22.2,18.7,37.8l-72.4,187.4h0.8
		c10.3,0,18.6,8.3,18.6,18.6c0,6.5-3.4,12.3-8.5,15.6V694h80.9v66.3c-34.5,0-66.8,16.7-86.8,44.9l-25.9,36.5h-65.1l33.3-46.9
		C759,780.4,748.6,760.4,730.9,760.4z M655.4,954.1c0-10.6,8.6-19.3,19.3-19.3h189.2c10.6,0,19.3,8.6,19.3,19.3s-8.6,19.3-19.3,19.3
		H674.7C664,973.4,655.4,964.7,655.4,954.1z M1038,1068.5v30.4H732.8l-0.4-0.3V992.1h71.8v27.2c28.2,16.9,71.6,18.3,107.6,18.3
		c79.1,0,143.5-64.4,143.5-143.5c0-48.1-24.4-98.6-61.2-130.1v-68.6c78,32.3,133,108.9,133,198.7
		C1127.2,965.8,1092,1029.4,1038,1068.5z M1323.6,563.3h-25.3v-29.1h25.3V563.3z M1416.5,565.4c-6,0-10.7-0.4-14.3-1.2
		c-3.6-0.8-7.2-2.5-10.8-4.9c-8.4,4.1-17,6.1-25.8,6.1c-18.1,0-27.2-9.6-27.2-28.8c0-9.4,2.5-16,7.5-19.9c5-3.9,12.7-6.2,23.2-6.9
		l18.8-1.4v-5.4c0-3.6-0.8-6.1-2.5-7.5c-1.6-1.3-4.3-2-7.9-2l-33,1.4l-0.7-16.3c12.5-3.4,24.4-5.1,35.7-5.1c11.3,0,19.4,2.3,24.4,7
		c5,4.7,7.5,12.2,7.5,22.5v36.5c0.2,2.8,0.7,4.8,1.4,5.9c0.7,1.1,2.2,1.9,4.4,2.4L1416.5,565.4z M1485.3,497.1
		c-9.5,2-17.6,4-24.4,6.1l-3.5,1.2v58.8h-23.5v-87.7h23.3v9.3c9.8-5.8,19.2-9.6,28.1-11.4V497.1z"/>
</g>
</svg>
